<svg version="1.1" viewBox="0 0 1123 187" xmlns="http://www.w3.org/2000/svg" xmlns:xlink="http://www.w3.org/1999/xlink">
	<g style="fill:#404040">
		<path d="m433 60c-15.8 0-28.8 13-28.8 28.8v57.4c-0.083 3.92 3.08 7.15 7 7.15 3.93 0 7.08-3.23 7-7.15v-57.4c0-8.26 6.54-14.8 14.8-14.8 8.25 0 14.8 6.54 14.8 14.8v57.4c-0.058 3.91 3.09 7.11 7 7.11 3.91 0 7.06-3.2 7-7.11v-57.4c0-8.26 6.54-14.8 14.8-14.8s14.8 6.54 14.8 14.8v57.4c-0.053 3.9 3.1 7.1 7 7.1 3.9 0 7.06-3.19 7-7.1v-57.4c0-15.8-13-28.8-28.8-28.8-8.73 0-16.5 4.04-21.8 10.2-5.3-6.2-13.1-10.2-21.8-10.2zm479-37.4c-15.7 0-28.5 12.8-28.5 28.5 0 15.7 12.8 28.5 28.5 28.5s28.5-12.8 28.5-28.5c0-15.7-12.8-28.5-28.5-28.5zm0 14c8.1 0 14.5 6.41 14.5 14.5 0 8.1-6.41 14.5-14.5 14.5s-14.5-6.41-14.5-14.5c0-8.09 6.41-14.5 14.5-14.5zm-0.105 51c-3.86 0.0587-6.95 3.24-6.9 7.1v51.7c-0.059 3.91 3.09 7.11 7 7.11 3.91 0 7.06-3.2 7-7.11v-51.7c0.056-3.95-3.16-7.16-7.11-7.1zm136-65c-3.86 0.0587-6.95 3.24-6.9 7.1v43.7c-8.42-8.27-19.9-13.4-32.6-13.4-25.7 0-46.6 20.9-46.6 46.6 0 25.7 20.9 46.6 46.6 46.6 12.7 0 24.2-5.15 32.6-13.4v6.49c-0.06 3.91 3.09 7.12 7 7.12s7.06-3.2 7-7.12v-117c0.06-3.95-3.16-7.16-7.11-7.1zm-39.5 51.4c18.1 0 32.6 14.5 32.6 32.6 0 18.1-14.5 32.6-32.6 32.6-18.1 9e-4 -32.6-14.5-32.6-32.6 0-18.1 14.5-32.6 32.6-32.6zm-300-14c-25.7 0-46.6 20.9-46.6 46.6v39.6c-0.057 3.91 3.09 7.1 7 7.1 3.91 0 7.06-3.2 7-7.1v-39.6c0-18.1 14.5-32.6 32.6-32.6 9.04 0 17.1 3.64 23.1 9.55 2.72 2.83 7.23 2.88 10 0.106 2.78-2.78 2.73-7.29-0.107-10-8.43-8.43-20.1-13.6-33-13.6zm112 38.6c-7e-4 5.94 4.81 10.8 10.8 10.8 5.94-1e-4 10.8-4.82 10.8-10.8-2e-4 -5.94-4.82-10.8-10.8-10.8-5.94 1.7e-4 -10.8 4.81-10.8 10.8zm-236-38.6c-25.1 0-45.7 20.1-46.5 45.1-0.23 1.02-0.23 2.07 0 3.09 0.835 24.9 21.4 45 46.5 45 12.8 0 24.5-5.22 33-13.6 2.8-2.72 2.82-7.21 0.065-9.97-2.76-2.76-7.24-2.73-9.97 0.065-5.91 5.91-14 9.55-23.1 9.55-15.7 0-28.6-10.9-31.8-25.6h71.4c3.87-4e-4 7-3.13 7-7 0-25.7-20.9-46.6-46.6-46.6zm-248 0.0447c-16.5-0.413-32.8 7.99-41.6 23.3-12.8 22.2-5.16 50.8 17.1 63.7 22.2 12.8 50.8 5.16 63.7-17.1 12.8-22.2 5.16-50.8-17.1-63.7-6.94-4.01-14.5-6.02-22-6.2zm480 0c-7.52 0.187-15.1 2.19-22 6.2-22.2 12.8-29.9 41.4-17.1 63.7 12.8 22.2 41.4 29.9 63.7 17.1 22.2-12.8 29.9-41.4 17.1-63.7-8.82-15.3-25.1-23.7-41.6-23.3zm-232 14c15.7 0 28.6 10.9 31.8 25.6h-63.6c3.19-14.7 16.1-25.6 31.8-25.6zm-252 0.0438c6.26-0.434 12.7 0.939 18.6 4.33 15.7 9.04 21 28.9 11.9 44.5-9.04 15.7-28.9 21-44.5 11.9-15.7-9.04-21-28.9-11.9-44.5 5.65-9.79 15.5-15.5 25.9-16.3zm487 0c10.4 0.725 20.3 6.47 25.9 16.3 9.04 15.7 3.73 35.5-11.9 44.5-15.7 9.04-35.5 3.73-44.5-11.9-9.04-15.7-3.73-35.5 11.9-44.5 5.87-3.39 12.3-4.77 18.6-4.33z"/>
		<path d="m144 9.65c-12.2-0.281-24.6 2.66-35.9 9.18-32.9 19-44.2 61.2-25.2 94.1a7 7 0 0 0 0.0166 0.03c1.28 2.19 2.68 4.29 4.19 6.32l-16.5 9.55a7 7 0 1 0 7 12.1l128-73.7a7 7 0 0 0 0.084-0.0473l23.8-13.7a7 7 0 1 0-7-12.1l-16.5 9.55c-1-2.32-2.12-4.59-3.38-6.79a7 7 0 0 0-0.017-0.0333c-12.4-21.6-34.9-33.8-58.2-34.4zm75.9 65.2-12.1 7c14.9 25.9 5.87 59-20.5 74.2-26.3 15.2-59.5 6.49-74.4-19.4l-12.1 7c18.8 32.5 60.8 43.4 93.6 24.5 32.8-18.9 44.3-60.8 25.6-93.3zm-29 18.3a10.8 10.8 0 0 0-5.12 1.44 10.8 10.8 0 0 0-3.93 14.7 10.8 10.8 0 0 0 14.7 3.94 10.8 10.8 0 0 0 3.94-14.7 10.8 10.8 0 0 0-9.57-5.37z"/>
	</g>
</svg>
