<svg version="1.1" viewBox="0 0 794 794" xmlns="http://www.w3.org/2000/svg" xmlns:xlink="http://www.w3.org/1999/xlink">
	<g style="fill:#404040">
		<path d="m371 19.4c-54.8-1.26-111 12-161 41.3-148 85.4-199 275-113 423a31.5 31.5 0 0 0 0.074 0.134c5.74 9.84 12.1 19.3 18.9 28.4l-74.4 43a31.5 31.5 0 1 0 31.5 54.5l574-332a31.5 31.5 0 0 0 0.378-0.213l107-61.7a31.5 31.5 0 1 0-31.5-54.5l-74.4 43c-4.51-10.4-9.54-20.6-15.2-30.5a31.5 31.5 0 0 0-0.075-0.15c-56-97-157-152-262-155zm342 294-54.5 31.5c67.2 116 26.4 265-92 334-118 68.4-268 29.2-335-87.1l-54.5 31.5c84.4 146 273 195 421 110 148-85.2 199-273 115-420zm-131 82.1a48.4 48.4 0 0 0-23 6.46 48.4 48.4 0 0 0-17.7 66.1 48.4 48.4 0 0 0 66.1 17.7 48.4 48.4 0 0 0 17.7-66.1 48.4 48.4 0 0 0-43-24.2z"/>
	</g>
</svg>
